<svg height="496pt" viewBox="0 0 496 496" width="496pt" xmlns="http://www.w3.org/2000/svg"><path d="m248 8c-132.546875 0-240 107.453125-240 240s107.453125 240 240 240 240-107.453125 240-240-107.453125-240-240-240zm-151.078125 394.398438c40.328125 39.5625 94.585937 61.683593 151.078125 61.601562-56.492188.082031-110.75-22.039062-151.078125-61.601562zm15.308594-18.597657c35.980469 36.046875 84.839843 56.273438 135.769531 56.199219-50.933594.066406-99.796875-20.171875-135.769531-56.230469zm135.769531-23.800781c-61.855469 0-112-50.144531-112-112s50.144531-112 112-112 112 50.144531 112 112-50.144531 112-112 112zm0-304c50.933594-.066406 99.792969 20.171875 135.761719 56.230469-35.96875-36.058594-84.828125-56.296875-135.761719-56.230469zm0-24c57.300781-.074219 112.269531 22.691406 152.734375 63.265625-40.464844-40.574219-95.433594-63.339844-152.734375-63.265625zm0 0" fill="#414042"/><path d="m248 136c-61.855469 0-112 50.144531-112 112s50.144531 112 112 112 112-50.144531 112-112-50.144531-112-112-112zm0 128c-8.835938 0-16-7.164062-16-16s7.164062-16 16-16 16 7.164062 16 16-7.164062 16-16 16zm0 0" fill="#d80027"/><path d="m264 248c0 8.835938-7.164062 16-16 16s-16-7.164062-16-16 7.164062-16 16-16 16 7.164062 16 16zm0 0" fill="#939598"/><g fill="#231f20"><path d="m248 0c-136.964844 0-248 111.035156-248 248s111.035156 248 248 248 248-111.035156 248-248c-.160156-136.902344-111.097656-247.839844-248-248zm0 480c-128.128906 0-232-103.871094-232-232s103.871094-232 232-232 232 103.871094 232 232c-.140625 128.070312-103.929688 231.859375-232 232zm0 0"/><path d="m248 24c-4.417969 0-8 3.582031-8 8s3.582031 8 8 8c55.195312-.148438 108.15625 21.789062 147.078125 60.921875 3.128906 3.125 8.195313 3.125 11.320313 0 3.128906-3.128906 3.128906-8.195313 0-11.320313-41.917969-42.144531-98.957032-65.765624-158.398438-65.601562zm0 0"/><path d="m248 456c-54.414062.128906-106.6875-21.195312-145.488281-59.34375-3.15625-3.09375-8.222657-3.042969-11.316407.117188-3.09375 3.15625-3.039062 8.222656.117188 11.316406 41.789062 41.085937 98.085938 64.046875 156.6875 63.910156 4.417969 0 8-3.582031 8-8s-3.582031-8-8-8zm0 0"/><path d="m248 48c-4.417969 0-8 3.582031-8 8s3.582031 8 8 8c48.824219-.128906 95.675781 19.273438 130.113281 53.886719 2.007813 2.082031 4.980469 2.914062 7.777344 2.183593 2.796875-.734374 4.984375-2.917968 5.714844-5.714843s-.101563-5.769531-2.179688-7.78125c-37.429687-37.625-88.355469-58.71875-141.425781-58.574219zm0 0"/><path d="m248 432c-48.824219.128906-95.675781-19.273438-130.113281-53.886719-3.136719-3.03125-8.128907-2.988281-11.214844.097657-3.085937 3.085937-3.128906 8.074218-.097656 11.214843 37.429687 37.625 88.355469 58.714844 141.425781 58.574219 4.417969 0 8-3.582031 8-8s-3.582031-8-8-8zm0 0"/><path d="m248 128c-66.273438 0-120 53.726562-120 120s53.726562 120 120 120 120-53.726562 120-120c-.074219-66.242188-53.757812-119.925781-120-120zm0 224c-57.4375 0-104-46.5625-104-104s46.5625-104 104-104 104 46.5625 104 104c-.066406 57.410156-46.589844 103.933594-104 104zm0 0"/><path d="m248 224c-13.253906 0-24 10.746094-24 24s10.746094 24 24 24 24-10.746094 24-24-10.746094-24-24-24zm0 32c-4.417969 0-8-3.582031-8-8s3.582031-8 8-8 8 3.582031 8 8-3.582031 8-8 8zm0 0"/></g></svg>